<svg xmlns="http://www.w3.org/2000/svg" xmlns:xlink="http://www.w3.org/1999/xlink" width="120" zoomAndPan="magnify" viewBox="0 0 90 89.999999" height="120" preserveAspectRatio="xMidYMid meet" version="1.0"><defs><g/><clipPath id="2707151098"><path d="M 2.992188 2.992188 L 87.007812 2.992188 L 87.007812 87.007812 L 2.992188 87.007812 Z M 2.992188 2.992188 " clip-rule="nonzero"/></clipPath><clipPath id="34d67e7221"><path d="M 45 2.992188 C 21.800781 2.992188 2.992188 21.800781 2.992188 45 C 2.992188 68.199219 21.800781 87.007812 45 87.007812 C 68.199219 87.007812 87.007812 68.199219 87.007812 45 C 87.007812 21.800781 68.199219 2.992188 45 2.992188 Z M 45 2.992188 " clip-rule="nonzero"/></clipPath></defs><g clip-path="url(#2707151098)"><g clip-path="url(#34d67e7221)"><path fill="#000000" d="M 2.992188 2.992188 L 87.007812 2.992188 L 87.007812 87.007812 L 2.992188 87.007812 Z M 2.992188 2.992188 " fill-opacity="1" fill-rule="nonzero"/></g></g><g fill="#ffffff" fill-opacity="1"><g transform="translate(10.620798, 53.884352)"><g><path d="M 1.09375 -19.265625 L 7.84375 -19.265625 L 7.890625 -19.015625 C 7.910156 -18.867188 7.9375 -18.722656 7.96875 -18.578125 C 8 -18.441406 8.023438 -18.289062 8.046875 -18.125 C 8.273438 -16.300781 8.539062 -14.40625 8.84375 -12.4375 C 9.15625 -10.46875 9.492188 -8.429688 9.859375 -6.328125 C 9.941406 -5.765625 10.03125 -5.1875 10.125 -4.59375 C 10.226562 -4 10.335938 -3.421875 10.453125 -2.859375 L 10.53125 -2.703125 L 10.625 -2.859375 C 10.65625 -2.921875 10.691406 -3 10.734375 -3.09375 C 10.773438 -3.195312 10.820312 -3.332031 10.875 -3.5 C 10.90625 -3.582031 10.953125 -3.742188 11.015625 -3.984375 C 11.085938 -4.222656 11.140625 -4.410156 11.171875 -4.546875 C 11.222656 -4.742188 11.273438 -4.941406 11.328125 -5.140625 C 11.390625 -5.335938 11.453125 -5.550781 11.515625 -5.78125 C 11.566406 -6 11.617188 -6.21875 11.671875 -6.4375 C 11.734375 -6.664062 11.789062 -6.921875 11.84375 -7.203125 C 12.125 -8.273438 12.472656 -9.632812 12.890625 -11.28125 C 13.316406 -12.925781 13.769531 -14.910156 14.25 -17.234375 L 14.421875 -18.046875 L 17.875 -18.078125 C 19.03125 -18.078125 19.882812 -18.070312 20.4375 -18.0625 C 21 -18.050781 21.296875 -18.046875 21.328125 -18.046875 C 21.359375 -17.984375 21.394531 -17.835938 21.4375 -17.609375 C 21.476562 -17.390625 21.554688 -17.082031 21.671875 -16.6875 C 21.722656 -16.5 21.796875 -16.1875 21.890625 -15.75 C 21.992188 -15.3125 22.128906 -14.726562 22.296875 -14 C 22.441406 -13.4375 22.566406 -12.9375 22.671875 -12.5 C 22.785156 -12.0625 22.882812 -11.675781 22.96875 -11.34375 C 23.164062 -10.632812 23.375 -9.863281 23.59375 -9.03125 C 23.820312 -8.207031 24.078125 -7.304688 24.359375 -6.328125 C 24.640625 -5.316406 24.859375 -4.53125 25.015625 -3.96875 C 25.171875 -3.40625 25.273438 -3.066406 25.328125 -2.953125 C 25.359375 -2.867188 25.40625 -2.828125 25.46875 -2.828125 C 25.601562 -2.910156 26.273438 -7.546875 27.484375 -16.734375 C 27.597656 -17.441406 27.675781 -17.988281 27.71875 -18.375 C 27.757812 -18.769531 27.796875 -19.007812 27.828125 -19.09375 L 27.90625 -19.265625 L 34.53125 -19.265625 C 34.613281 -19.179688 34.398438 -17.691406 33.890625 -14.796875 C 32.960938 -9.066406 32.21875 -4.632812 31.65625 -1.5 C 31.09375 1.632812 30.742188 3.484375 30.609375 4.046875 L 30.5625 4.296875 L 26.09375 4.296875 C 23.113281 4.296875 21.609375 4.28125 21.578125 4.25 C 21.554688 4.226562 21.296875 3.148438 20.796875 1.015625 C 20.304688 -1.117188 19.53125 -4.363281 18.46875 -8.71875 C 18.207031 -9.820312 18.035156 -10.414062 17.953125 -10.5 C 17.898438 -10.414062 17.648438 -9.347656 17.203125 -7.296875 C 17.140625 -7.015625 17.046875 -6.640625 16.921875 -6.171875 C 16.796875 -5.710938 16.664062 -5.1875 16.53125 -4.59375 C 16.25 -3.382812 16.050781 -2.625 15.9375 -2.3125 C 15.820312 -1.863281 15.6875 -1.300781 15.53125 -0.625 C 15.375 0.0390625 15.1875 0.828125 14.96875 1.734375 C 14.800781 2.460938 14.664062 3.015625 14.5625 3.390625 C 14.46875 3.773438 14.40625 3.992188 14.375 4.046875 L 14.296875 4.296875 L 9.953125 4.296875 L 5.609375 4.25 L 5.515625 3.96875 C 5.460938 3.738281 5.398438 3.472656 5.328125 3.171875 C 5.265625 2.878906 5.203125 2.539062 5.140625 2.15625 C 5.085938 1.976562 5.046875 1.765625 5.015625 1.515625 C 4.984375 1.265625 4.925781 0.957031 4.84375 0.59375 C 4.757812 0.226562 4.695312 -0.0703125 4.65625 -0.3125 C 4.613281 -0.550781 4.578125 -0.726562 4.546875 -0.84375 C 4.015625 -3.375 3.566406 -5.578125 3.203125 -7.453125 C 2.835938 -9.335938 2.539062 -10.925781 2.3125 -12.21875 C 2.257812 -12.445312 2.203125 -12.75 2.140625 -13.125 C 2.085938 -13.507812 2.003906 -13.953125 1.890625 -14.453125 C 1.867188 -14.597656 1.835938 -14.796875 1.796875 -15.046875 C 1.753906 -15.296875 1.703125 -15.554688 1.640625 -15.828125 C 1.585938 -16.097656 1.539062 -16.34375 1.5 -16.5625 C 1.457031 -16.789062 1.4375 -16.945312 1.4375 -17.03125 C 1.375 -17.226562 1.316406 -17.5 1.265625 -17.84375 C 1.210938 -18.195312 1.171875 -18.445312 1.140625 -18.59375 C 1.078125 -19.007812 1.0625 -19.234375 1.09375 -19.265625 Z M 1.09375 -19.265625 "/></g></g></g><g fill="#ffffff" fill-opacity="1"><g transform="translate(43.373974, 53.884352)"><g><path d="M 5.4375 -24.359375 L 5.515625 -25.421875 L 11.796875 -25.421875 L 11.796875 -19.390625 C 11.796875 -19.304688 12.769531 -19.265625 14.71875 -19.265625 L 17.578125 -19.265625 L 17.53125 -16.4375 L 17.53125 -13.65625 L 14.671875 -13.65625 C 12.785156 -13.65625 11.816406 -13.628906 11.765625 -13.578125 L 11.71875 -9.734375 C 11.75 -8.441406 11.765625 -7.410156 11.765625 -6.640625 C 11.765625 -5.867188 11.765625 -5.351562 11.765625 -5.09375 C 11.765625 -4.59375 11.804688 -4.257812 11.890625 -4.09375 C 12.109375 -3.613281 12.519531 -3.28125 13.125 -3.09375 C 13.726562 -2.914062 14.664062 -2.8125 15.9375 -2.78125 L 17.5 -2.78125 L 17.5 0.546875 C 17.5 2.679688 17.46875 3.890625 17.40625 4.171875 L 17.375 4.46875 L 16.734375 4.46875 C 15.921875 4.46875 15.082031 4.445312 14.21875 4.40625 C 13.363281 4.363281 12.53125 4.25 11.71875 4.0625 C 10.90625 3.882812 10.125 3.617188 9.375 3.265625 C 8.632812 2.910156 7.953125 2.425781 7.328125 1.8125 C 6.679688 1.132812 6.203125 0.421875 5.890625 -0.328125 C 5.585938 -1.085938 5.410156 -1.921875 5.359375 -2.828125 C 5.328125 -3.160156 5.300781 -3.828125 5.28125 -4.828125 C 5.269531 -5.828125 5.265625 -7.179688 5.265625 -8.890625 L 5.265625 -13.609375 L 0.671875 -13.609375 L 0.671875 -14.875 C 0.671875 -14.957031 0.671875 -15.132812 0.671875 -15.40625 C 0.671875 -15.675781 0.660156 -15.957031 0.640625 -16.25 C 0.628906 -16.539062 0.625 -16.8125 0.625 -17.0625 C 0.625 -17.320312 0.625 -17.492188 0.625 -17.578125 L 0.625 -19.140625 C 0.6875 -19.222656 1.488281 -19.265625 3.03125 -19.265625 L 5.390625 -19.265625 L 5.390625 -21.25 C 5.390625 -21.945312 5.390625 -22.554688 5.390625 -23.078125 C 5.390625 -23.597656 5.40625 -24.023438 5.4375 -24.359375 Z M 5.4375 -24.359375 "/></g></g></g><g fill="#ffffff" fill-opacity="1"><g transform="translate(59.518445, 53.884352)"><g><path d="M 14 -28.03125 L 16.53125 -28.03125 L 16.484375 -25.71875 C 16.484375 -25.070312 16.484375 -24.519531 16.484375 -24.0625 C 16.484375 -23.613281 16.46875 -23.378906 16.4375 -23.359375 L 15.296875 -23.359375 C 13.640625 -23.359375 12.460938 -22.976562 11.765625 -22.21875 C 11.367188 -21.738281 11.148438 -21.257812 11.109375 -20.78125 C 11.066406 -20.300781 11.046875 -19.78125 11.046875 -19.21875 L 16.984375 -19.21875 L 16.953125 -13.828125 L 11 -13.75 L 11 4.296875 L 4.71875 4.296875 L 4.765625 2.40625 C 4.796875 1.757812 4.816406 0.65625 4.828125 -0.90625 C 4.835938 -2.46875 4.84375 -4.523438 4.84375 -7.078125 L 4.890625 -13.828125 L 0.890625 -13.828125 L 0.84375 -19.21875 L 4.96875 -19.21875 C 4.96875 -20.125 5.015625 -21.046875 5.109375 -21.984375 C 5.210938 -22.921875 5.4375 -23.742188 5.78125 -24.453125 C 6.226562 -25.296875 6.742188 -25.960938 7.328125 -26.453125 C 7.921875 -26.941406 8.578125 -27.296875 9.296875 -27.515625 C 10.015625 -27.742188 10.765625 -27.882812 11.546875 -27.9375 C 12.335938 -28 13.15625 -28.03125 14 -28.03125 Z M 14 -28.03125 "/></g></g></g></svg>